# xmcd
#
# Track frame offsets: 
#        150
#        21063
#        32191
#        43604
#        63977
#        81204
#        97660
#        116045
#        132161
#        164622
#        185830
#        219013
#        243096
#        266774
#        289027
#        309470
#
# Disc length: 4325 seconds
#
# Revision: 0
# Processed by: cddbd v1.5.2PL0 Copyright (c) Steve Scherf et al.
# Submitted via: ExactAudioCopy v1.0b3
#
DISCID=d910e310
DTITLE=Matthias Schlechter and Jochen Reich - Beats'n'Boogies
DYEAR=1900
DGENRE=
TTITLE0=3..2..1.. Lift-Off!
TTITLE1=Cotton Jive
TTITLE2=Mess Around
TTITLE3=Stagger Lee
TTITLE4=At The Parade
TTITLE5=Loop The Loop
TTITLE6=New Orleans Sunday Brunch
TTITLE7=Living Downtown
TTITLE8=Hot Spot
TTITLE9=Tell Me How Do You Feel
TTITLE10=Goin' Down Slow
TTITLE11=Dark Roast Espresso
TTITLE12=Journey To The Jungle
TTITLE13=Cross Road Blues
TTITLE14=The Sky Is Cryin'
TTITLE15=Lost In Blue
EXTD=
EXTT0=
EXTT1=
EXTT2=
EXTT3=
EXTT4=
EXTT5=
EXTT6=
EXTT7=
EXTT8=
EXTT9=
EXTT10=
EXTT11=
EXTT12=
EXTT13=
EXTT14=
EXTT15=
PLAYORDER=
